<svg width="31" height="24" viewBox="0 0 31 24" fill="none" xmlns="http://www.w3.org/2000/svg">
<g opacity="0.3">
<path d="M17.7966 7L24.1526 12M24.1526 12L17.7966 17M24.1526 12L15.8898 12" stroke="#121212" stroke-width="2"/>
<path fill-rule="evenodd" clip-rule="evenodd" d="M13.9831 11L9.53391 11C8.98162 11 8.53391 11.4477 8.53391 12C8.53391 12.5523 8.98162 13 9.53391 13L13.9831 13L13.9831 18C13.9831 19.1046 13.0876 20 11.9831 20L5.81357 20C4.709 20 3.81357 19.1046 3.81357 18L3.81357 6C3.81357 4.89543 4.709 4 5.81357 4L11.9831 4C13.0876 4 13.9831 4.89543 13.9831 6L13.9831 11Z" fill="#121212"/>
</g>
</svg>
