<svg width="31" height="24" viewBox="0 0 31 24" fill="none" xmlns="http://www.w3.org/2000/svg">
<g opacity="0.3">
<path d="M8.26169 12L13.3458 12" stroke="#121212" stroke-width="2" stroke-linecap="round" stroke-linejoin="round"/>
<path fill-rule="evenodd" clip-rule="evenodd" d="M17.8116 8.78592L17.0257 8.16758L18.2623 6.59575L19.0482 7.21408L24.1323 11.2141L25.1313 12L24.1323 12.7859L19.0482 16.7859L18.2623 17.4042L17.0257 15.8324L17.8116 15.2141L20.6257 13L16.5234 13L16.5234 18C16.5234 19.1046 17.4188 20 18.5234 20L24.6916 20C25.7962 20 26.6916 19.1046 26.6916 18L26.6916 6C26.6916 4.89543 25.7962 4 24.6916 4L18.5234 4C17.4188 4 16.5234 4.89543 16.5234 6L16.5234 11L20.6257 11L17.8116 8.78592Z" fill="#121212"/>
</g>
</svg>
